<svg xmlns="http://www.w3.org/2000/svg" width="500" viewBox="0 0 375 150" height="200" version="1.0"><defs><clipPath id="prefix__a"><path d="M26 104h27v25.695H26zm0 0"/></clipPath><clipPath id="prefix__b"><path d="M9.75 80H24v11H9.75zm0 0"/></clipPath><clipPath id="prefix__c"><path d="M11 22.445h29V53H11zm0 0"/></clipPath><clipPath id="prefix__d"><path d="M39 22.445h28V53H39zm0 0"/></clipPath><clipPath id="prefix__e"><path d="M255.387 97.254h112.035v32.36H255.387zm0 0"/></clipPath></defs><path d="M48 88.402c-1.637 1.102-4.012 1.68-5.629 3.23-1.566 1.505-2.426 3.911-1.223 8.587 0 0 1.04.11 2.575.515 1.304.344 2.965.899 4.648 1.774a17.179 17.179 0 013.332 2.23l6.012-6.27s1.105-5.89-1.43-10.738a11.28 11.28 0 00-1.433-2.125h.003c.153 0 3 .067 5.516 4.895 0 0 3.215-6.5 7.832-7.41 0 0 .067-.211.152-.57.336-1.375.993-4.899-.503-6.84a9.456 9.456 0 01-1.426-2.672c-.64-1.836-.715-3.719-.39-5.016 0 0-.106-.832-.622-2.058-.508-1.204-1.414-2.786-3.012-4.344-1.425-1.387-3.406-2.754-6.156-3.805l3.356-1.746s-.454-.406-1.305-.898a13.315 13.315 0 00-6.652-1.762c-3.395 0-7.704 1.25-12.594 5.457v26.91c4.125-.488 8.457-2.656 8.457-2.656s3.707 3.144.492 5.312zm-5.48-17.18a10.141 10.141 0 01-.024-.175s6.035 3.64 10.547-1.262c.957-1.035 2.203-1.762 3.594-1.996 2.234-.383 5.242.043 6.515 4.418H60.11s-2.304 6.55-7.601 6.129l.578 3.41s-3.672-2.203-4.457-5.98c0 .004-5.324.207-6.11-4.543zm0 0"/><g clip-path="url(#prefix__a)"><path d="M48.98 112.652c.477 1.7 2.774 3.516 3.696 5.024-.965 2.273-2.207 4.336-3.805 6.222.008-2.386-.582-4.414-1.812-6.457a11.78 11.78 0 01-2.22 6.528c-.773 1.066-1.722 1.992-2.66 2.91-.917.894-1.835 1.789-2.753 2.687l-2.746-2.687c-.946-.918-1.89-1.844-2.664-2.91a11.747 11.747 0 01-2.215-6.528c-1.235 2.043-1.824 4.075-1.817 6.457-.847-1-1.593-2.05-2.254-3.156a24.502 24.502 0 01-1.55-3.066c.894-1.461 2.695-3.2 3.246-4.852.015-.054.035-.11.047-.164l-1.563 1.422-1.816 1.648a19.204 19.204 0 001.934-5.102c.156-.706.269-1.421.343-2.14 1.649-1.164 3.867-2.187 6.121-2.941a15.52 15.52 0 019.871 0c2.254.754 4.473 1.777 6.117 2.941a18.938 18.938 0 002.282 7.239zm0 0"/></g><path d="M35.582 71.223c.012-.055.02-.114.027-.176 0 0-6.035 3.64-10.55-1.262-.954-1.035-2.204-1.762-3.59-1.996-2.239-.383-5.242.043-6.516 4.418h3.04c-2.45.074-4.626.422-6.313.797.64-1.832.715-3.715.39-5.012 0 0 .102-.832.621-2.058 7.196-5.356 12.27.097 12.59.097 9.203 0 10.973 2.938 10.973 2.938-.168.969-.414 1.703-.672 2.254zm0 0"/><g clip-path="url(#prefix__b)"><path d="M23.246 85.605c-.152 0-3 .067-5.516 4.895 0 0-3.214-6.5-7.828-7.41 0 0-.066-.215-.156-.57.844-1.032 2.258-1.942 4.578-1.72 0 0 4.485 4.677 8.922 4.805zm0 0"/></g><path d="M23.254 85.605l-1.438 2.125c.391-.738.864-1.457 1.438-2.125zm0 0M36.957 100.219s-1.043.11-2.578.515c-2.703-1.175-6.012-.902-8.75.25 0 0 2.52-3.074 7.691-2.933 0 0-2.304-2.446-7.687-.77.105-.074 4.031-3.316 7.34-2.972 0 0-5.141-1.817-9.438-.383.13-.106 5.125-4.094 12.2-2.293 1.566 1.5 2.421 3.91 1.222 8.586zm0 0M33.04 59.984c-7.763-3.011-14.188-.289-17.34 1.606 1.429-1.387 3.41-2.754 6.155-3.805l-3.355-1.75s.457-.402 1.305-.894c9.105-.657 13.234 4.843 13.234 4.843zm0 0"/><path fill="#737373" d="M21.508 71.047s-1.051 2.375 1.36 3.664c2.413 1.293 4.378.14 4.378.14l-3.723-3.488 1.313 2.07zm0 0"/><g clip-path="url(#prefix__c)"><path d="M39.05 22.48l-10.624 6.852s6.222 7.828 4.894 14.05c0 0-13.07 2.868-11.535-10.484L11.68 37.023s3.535 5.454 4.933 12.934c0 0 11.535-5.805 22.438 2.445v-8.68c-.742-2.538-3.196-10.394-5.645-12.624l5.645-4.457zM18.099 45.621l-2.399-6.605 2.977-1.575c1.047 6.399-.578 8.18-.578 8.18zm0 0"/></g><path d="M42.52 71.223a10.141 10.141 0 01-.024-.176s6.035 3.64 10.547-1.262c.957-1.035 2.203-1.762 3.594-1.996 2.234-.383 5.242.043 6.515 4.418H60.11c2.453.074 4.625.422 6.317.797-.64-1.832-.715-3.715-.39-5.012 0 0-.106-.832-.622-2.058-7.195-5.356-12.27.097-12.594.097-9.199 0-10.972 2.938-10.972 2.938.168.969.414 1.703.672 2.254zm0 0M54.855 85.605c.153 0 3 .067 5.516 4.895 0 0 3.215-6.5 7.832-7.41 0 0 .067-.215.152-.57-.843-1.032-2.253-1.942-4.574-1.72 0 0-4.488 4.677-8.926 4.805zm0 0M54.852 85.605l1.433 2.125a11.28 11.28 0 00-1.433-2.125zm0 0M41.148 100.219s1.04.11 2.575.515c2.703-1.175 6.011-.902 8.75.25 0 0-2.516-3.074-7.688-2.933 0 0 2.305-2.446 7.684-.77-.102-.074-4.032-3.316-7.336-2.972 0 0 5.137-1.817 9.433-.383-.125-.106-5.125-4.094-12.195-2.293-1.566 1.5-2.426 3.91-1.223 8.586zm0 0M45.063 59.984c7.765-3.011 14.19-.289 17.34 1.606-1.426-1.387-3.407-2.754-6.157-3.805l3.356-1.75s-.454-.402-1.305-.894c-9.102-.657-13.234 4.843-13.234 4.843zm0 0"/><path fill="#737373" d="M56.598 71.047s1.05 2.375-1.364 3.664c-2.41 1.293-4.379.14-4.379.14l3.723-3.488-1.308 2.07zm0 0"/><g clip-path="url(#prefix__d)"><path d="M39.05 26.64l5.645 4.458c-2.449 2.23-4.898 10.086-5.644 12.625v8.68c10.906-8.25 22.441-2.45 22.441-2.45 1.399-7.48 4.934-12.933 4.934-12.933L56.32 32.898c1.535 13.352-11.535 10.485-11.535 10.485-1.328-6.223 4.895-14.051 4.895-14.051L39.05 22.48zm20.38 10.801l2.972 1.575-2.398 6.605s-1.625-1.781-.574-8.18zm0 0"/></g><path d="M31.8 117.441c-1.234 2.043-1.823 4.075-1.816 6.457-.847-1-1.593-2.05-2.254-3.156 1.004-1.332 2.344-2.61 4.07-3.3zm0 0M34.027 108.203s-1.453 1.906-4.601 4.621c-.469.403-.973.82-1.516 1.258-.5.398-1.027.809-1.59 1.227a19.204 19.204 0 001.707-4.68c1.793-.668 6-2.426 6-2.426zm0 0M47.055 117.441c1.234 2.043 1.824 4.075 1.816 6.457.848-1 1.594-2.05 2.254-3.156-1.004-1.332-2.344-2.61-4.07-3.3zm0 0M44.828 108.203s1.453 1.906 4.602 4.621c.468.403.972.82 1.515 1.258.5.398 1.028.809 1.59 1.227a19.204 19.204 0 01-1.707-4.68c-1.793-.668-6-2.426-6-2.426zm0 0M123.017 58.703l-16.313 16.39 17.922 17.922h-15.25L95.658 79.312v13.703H83.829V35.5h11.829v35.172l11.968-11.97zm0 0"/><path d="M122.94 39.593c1.384-1.382 3.036-2.078 4.954-2.078 1.914 0 3.566.696 4.953 2.078 1.383 1.375 2.078 3.024 2.078 4.938 0 1.918-.695 3.57-2.078 4.953-1.387 1.375-3.04 2.063-4.953 2.063-1.918 0-3.57-.688-4.953-2.063-1.375-1.383-2.063-3.035-2.063-4.953 0-1.914.688-3.563 2.063-4.938zm-1.124 19.11v34.312h11.828V58.703zm0 0M136.796 93.015V58.703h11.828v3.61h.14c3.071-3.071 6.348-4.61 9.829-4.61a19.5 19.5 0 015.047.672 18.21 18.21 0 014.812 2.078c1.54.937 2.79 2.265 3.75 3.984.957 1.711 1.438 3.7 1.438 5.969v22.61h-11.828V73.624c0-1.782-.575-3.336-1.72-4.672-1.136-1.344-2.616-2.016-4.437-2.016-1.78 0-3.402.695-4.859 2.078-1.45 1.375-2.172 2.914-2.172 4.61v19.39zm0 0"/><path d="M174.239 101.437l9.703-4.75c1.781 2.945 4.879 4.422 9.297 4.422 2.05 0 3.957-.664 5.718-1.984 1.758-1.313 2.641-3.328 2.641-6.047v-2.531c-2.094 2.312-5.84 3.468-11.234 3.468-4.95 0-9.032-1.75-12.25-5.25-3.211-3.5-4.813-7.789-4.813-12.875 0-5.082 1.602-9.383 4.813-12.906 3.218-3.52 7.3-5.281 12.25-5.281 4.414 0 8.093 1.36 11.03 4.078h.204v-3.078h11.828v35.25c0 5.57-1.851 9.875-5.547 12.906-3.699 3.031-8.578 4.547-14.64 4.547-9.813 0-16.149-3.324-19-9.969zm13.937-31.36c-1.531 1.512-2.297 3.45-2.297 5.813 0 2.367.735 4.297 2.203 5.797 1.477 1.492 3.422 2.235 5.828 2.235 2.313 0 4.211-.754 5.704-2.266 1.5-1.52 2.25-3.442 2.25-5.766 0-2.363-.774-4.3-2.313-5.812-1.531-1.52-3.414-2.281-5.64-2.281-2.282 0-4.196.761-5.735 2.28zm0 0"/><path d="M237.309 93.015h-8.032l-18.39-34.312h13.656l8.36 18.531 8.218-18.531h8.156l8.235 18.531 8.36-18.531h13.64l-18.39 34.312h-8.032l-7.89-17.718zm0 0M311.674 77.5H286.8c0 2.406.781 4.195 2.344 5.359 1.562 1.156 3.254 1.734 5.078 1.734 1.914 0 3.43-.254 4.547-.765 1.113-.52 2.383-1.535 3.812-3.047l8.563 4.281c-3.574 5.969-9.508 8.953-17.797 8.953-5.168 0-9.605-1.77-13.312-5.312-3.7-3.54-5.547-7.805-5.547-12.797 0-5 1.847-9.281 5.547-12.844 3.707-3.57 8.144-5.36 13.312-5.36 5.445 0 9.875 1.575 13.281 4.72 3.407 3.148 5.11 7.636 5.11 13.468 0 .805-.024 1.34-.063 1.61zm-24.547-6.547h13.047c-.273-1.79-.976-3.164-2.11-4.125-1.136-.957-2.593-1.438-4.374-1.438-1.969 0-3.531.516-4.688 1.547-1.156 1.024-1.781 2.36-1.875 4.016zm0 0M347.378 62.984c3.22 3.523 4.829 7.824 4.829 12.906 0 5.086-1.61 9.375-4.829 12.875-3.21 3.5-7.289 5.25-12.234 5.25-4.543 0-8.289-1.625-11.234-4.875h-.125v3.875h-11.703V35.5h11.828v26.484c2.945-2.852 6.691-4.281 11.234-4.281 4.945 0 9.024 1.761 12.234 5.281zm-9.953 18.703c1.47-1.5 2.203-3.43 2.203-5.797 0-2.363-.773-4.3-2.312-5.812-1.531-1.52-3.434-2.281-5.703-2.281-2.23 0-4.117.761-5.656 2.28-1.543 1.512-2.313 3.45-2.313 5.813 0 2.324.742 4.246 2.234 5.766 1.5 1.512 3.41 2.266 5.735 2.266 2.406 0 4.344-.743 5.812-2.235zm0 0M360.167 78.703c2.133 0 3.946.75 5.438 2.25 1.5 1.492 2.25 3.304 2.25 5.437 0 2.094-.75 3.89-2.25 5.39-1.492 1.49-3.305 2.235-5.438 2.235-2.093 0-3.89-.746-5.39-2.234-1.492-1.5-2.235-3.297-2.235-5.39 0-2.134.743-3.946 2.235-5.438 1.5-1.5 3.297-2.25 5.39-2.25zm0 0"/><g clip-path="url(#prefix__e)"><path fill="#9afd8d" d="M255.387 97.254h111.988v32.36H255.387zm0 0"/></g><path d="M274.96 120.989l-.798-2.047h-.11c-.687.875-1.398 1.48-2.124 1.813-.73.332-1.684.5-2.86.5-1.437 0-2.574-.41-3.406-1.235-.824-.82-1.234-1.992-1.234-3.515 0-1.594.555-2.766 1.672-3.516 1.113-.758 2.797-1.18 5.047-1.266l2.593-.078v-.656c0-1.52-.777-2.281-2.328-2.281-1.199 0-2.61.36-4.234 1.078l-1.36-2.766c1.727-.906 3.645-1.36 5.75-1.36 2.008 0 3.551.446 4.625 1.329 1.082.875 1.625 2.21 1.625 4v10zm-1.22-6.953l-1.578.047c-1.187.043-2.074.261-2.656.656-.586.387-.875.984-.875 1.797 0 1.156.66 1.734 1.984 1.734.946 0 1.703-.27 2.266-.812.57-.551.86-1.282.86-2.188zm0 0M295.101 105.973v2.078l-2.36.61c.438.68.657 1.43.657 2.25 0 1.617-.563 2.875-1.688 3.781-1.125.899-2.687 1.344-4.687 1.344l-.734-.047-.61-.063c-.418.325-.625.684-.625 1.079 0 .586.75.875 2.25.875h2.563c1.644 0 2.898.355 3.765 1.062.864.711 1.297 1.75 1.297 3.125 0 1.75-.734 3.11-2.203 4.078-1.469.969-3.57 1.453-6.297 1.453-2.105 0-3.71-.367-4.812-1.093-1.106-.73-1.657-1.758-1.657-3.079 0-.898.282-1.652.844-2.265.563-.602 1.39-1.035 2.485-1.297-.418-.176-.782-.469-1.094-.875-.313-.414-.469-.848-.469-1.297 0-.57.16-1.047.484-1.422.332-.383.813-.765 1.438-1.14-.781-.332-1.406-.875-1.875-1.625-.461-.758-.688-1.649-.688-2.672 0-1.633.532-2.899 1.594-3.797 1.07-.895 2.598-1.344 4.578-1.344.414 0 .91.043 1.485.125.582.074.957.125 1.125.156zm-11.594 17.14c0 .563.27 1.005.813 1.33.539.32 1.3.483 2.281.483 1.469 0 2.613-.203 3.438-.609.832-.406 1.25-.96 1.25-1.656 0-.563-.247-.953-.735-1.172-.492-.211-1.25-.313-2.281-.313h-2.125c-.75 0-1.383.176-1.89.532-.5.351-.75.82-.75 1.406zm1.485-12.218c0 .813.187 1.461.562 1.938.375.468.942.703 1.703.703.77 0 1.332-.235 1.688-.703.351-.477.531-1.125.531-1.938 0-1.812-.742-2.719-2.219-2.719-1.511 0-2.265.907-2.265 2.72zm0 0M303.778 108.614c-.867 0-1.543.277-2.031.828-.492.543-.774 1.32-.844 2.328h5.735c-.012-1.008-.274-1.785-.782-2.328-.511-.55-1.203-.828-2.078-.828zm.578 12.64c-2.418 0-4.308-.664-5.672-2-1.355-1.331-2.03-3.222-2.03-5.671 0-2.508.628-4.453 1.89-5.828 1.258-1.375 3-2.063 5.219-2.063 2.113 0 3.757.606 4.937 1.813 1.188 1.21 1.781 2.882 1.781 5.015v1.985h-9.672c.04 1.168.383 2.078 1.032 2.734.644.648 1.547.969 2.703.969.906 0 1.758-.094 2.562-.282a12.318 12.318 0 002.532-.906v3.172a8.891 8.891 0 01-2.297.797c-.813.176-1.809.266-2.985.266zm0 0M327.667 120.989h-4.094v-8.766c0-1.082-.195-1.894-.578-2.437-.387-.54-.996-.813-1.828-.813-1.149 0-1.977.387-2.484 1.157-.512.761-.766 2.027-.766 3.796v7.063h-4.094v-15.016h3.125l.547 1.922h.234a4.175 4.175 0 011.875-1.64c.801-.375 1.711-.563 2.735-.563 1.75 0 3.07.477 3.969 1.422.906.937 1.359 2.305 1.359 4.094zm0 0M337.991 121.255c-4.68 0-7.015-2.563-7.015-7.688 0-2.55.632-4.5 1.906-5.844 1.27-1.351 3.094-2.03 5.469-2.03 1.738 0 3.297.339 4.672 1.015l-1.204 3.172a17.995 17.995 0 00-1.812-.625 5.815 5.815 0 00-1.656-.25c-2.137 0-3.203 1.511-3.203 4.53 0 2.938 1.066 4.407 3.203 4.407.78 0 1.504-.101 2.172-.312a7.884 7.884 0 002.03-.985v3.5a6.603 6.603 0 01-2.015.86c-.68.164-1.527.25-2.547.25zm0 0M343.881 105.973h4.485l2.828 8.453c.25.73.414 1.594.5 2.594h.078c.101-.914.297-1.781.578-2.594l2.781-8.453h4.39l-6.343 16.938c-.586 1.562-1.418 2.734-2.5 3.515-1.074.782-2.336 1.172-3.781 1.172-.711 0-1.402-.078-2.078-.234v-3.25a7.11 7.11 0 001.61.172 2.92 2.92 0 001.905-.672c.54-.438.961-1.106 1.266-2l.25-.734zm0 0"/></svg>